<svg width="56" height="53" viewBox="0 0 56 53" fill="none" xmlns="http://www.w3.org/2000/svg">
<path d="M30.3188 0V13.335C29.452 13.1847 28.5733 13.1144 27.6938 13.125C26.8142 13.1144 25.9355 13.1847 25.0688 13.335V0H30.3188ZM40.5562 34.125C40.4353 34.6144 40.2864 35.0965 40.11 35.5688L48.6937 40.4775V52.5H43.4437V43.5225L37.5112 40.1363C36.2939 41.547 34.7868 42.6787 33.0927 43.4545C31.3985 44.2303 29.5571 44.6319 27.6938 44.6319C25.8304 44.6319 23.989 44.2303 22.2948 43.4545C20.6007 42.6787 19.0936 41.547 17.8763 40.1363L11.9438 43.5225V52.5H6.69375V40.4775L15.2775 35.5688C15.1011 35.0965 14.9521 34.6144 14.8312 34.125H10.1063L2.8875 38.9287L0 34.5713L8.53125 28.875H14.8312C14.996 28.0848 15.2332 27.3116 15.54 26.565L11.445 23.94L2.07375 26.25L0.81375 21L12.4425 18.165L18.5063 22.1812C20.9597 19.7764 24.2582 18.4294 27.6938 18.4294C31.1293 18.4294 34.4278 19.7764 36.8813 22.1812L42.84 18.165L54.5737 21L53.3137 26.25L43.9425 23.9137L39.8475 26.5387C40.1558 27.2938 40.3931 28.0759 40.5562 28.875H46.8562L55.3875 34.545L52.5 38.9025L45.2812 34.125H40.5562ZM25.0688 31.5C25.0688 30.9808 24.9148 30.4733 24.6264 30.0416C24.3379 29.6099 23.928 29.2735 23.4483 29.0748C22.9686 28.8761 22.4408 28.8242 21.9316 28.9254C21.4224 29.0267 20.9547 29.2767 20.5876 29.6438C20.2205 30.011 19.9705 30.4787 19.8692 30.9879C19.7679 31.4971 19.8199 32.0249 20.0186 32.5045C20.2172 32.9842 20.5537 33.3942 20.9854 33.6826C21.4171 33.971 21.9246 34.125 22.4438 34.125C23.1399 34.125 23.8076 33.8484 24.2999 33.3562C24.7922 32.8639 25.0688 32.1962 25.0688 31.5ZM35.5688 31.5C35.5688 30.9808 35.4148 30.4733 35.1264 30.0416C34.8379 29.6099 34.428 29.2735 33.9483 29.0748C33.4686 28.8761 32.9408 28.8242 32.4316 28.9254C31.9224 29.0267 31.4547 29.2767 31.0876 29.6438C30.7205 30.011 30.4705 30.4787 30.3692 30.9879C30.2679 31.4971 30.3199 32.0249 30.5186 32.5045C30.7172 32.9842 31.0537 33.3942 31.4854 33.6826C31.9171 33.971 32.4246 34.125 32.9438 34.125C33.6399 34.125 34.3076 33.8484 34.7999 33.3562C35.2922 32.8639 35.5688 32.1962 35.5688 31.5Z" fill="black"/>
</svg>
