<svg width="71" height="67" viewBox="0 0 71 67" fill="none" xmlns="http://www.w3.org/2000/svg">
<path d="M71 56.4211H56.8V67L39.05 51.1316L56.8 35.2632V45.8421H71V56.4211ZM63.9 0H7.1C5.21696 0 3.41105 0.743043 2.07954 2.06567C0.748033 3.38829 0 5.18216 0 7.05263V49.3684C0 51.2389 0.748033 53.0328 2.07954 54.3554C3.41105 55.678 5.21696 56.4211 7.1 56.4211H33.1925C32.3641 54.161 31.9435 51.7736 31.95 49.3684C31.955 44.8252 33.4322 40.4043 36.1629 36.7597C38.8935 33.1151 42.7327 30.4404 47.1125 29.1312C51.4922 27.8221 56.1798 27.9482 60.4818 29.4907C64.7839 31.0332 68.4718 33.9103 71 37.6963V7.05263C71 5.18216 70.252 3.38829 68.9205 2.06567C67.5889 0.743043 65.783 0 63.9 0V0ZM63.9 14.1053L35.5 31.7368L7.1 14.1053V7.05263L35.5 24.6842L63.9 7.05263V14.1053Z" fill="white"/>
</svg>
