<svg width="35" height="35" viewBox="0 0 35 35" fill="none" xmlns="http://www.w3.org/2000/svg">
<path d="M13.3216 30.2944V25.8352C13.3216 24.6969 14.2511 23.7742 15.3977 23.7742H19.5892C20.1399 23.7742 20.6679 23.9913 21.0573 24.3778C21.4467 24.7644 21.6654 25.2886 21.6654 25.8352V30.2944C21.6619 30.7677 21.8488 31.2227 22.1847 31.5586C22.5206 31.8944 22.9776 32.0833 23.4543 32.0833H26.3139C27.6495 32.0867 28.9315 31.5624 29.8771 30.6261C30.8227 29.6898 31.3542 28.4185 31.3542 27.0926V14.3891C31.3541 13.3181 30.8759 12.3022 30.0484 11.6151L20.3205 3.90227C18.6283 2.54995 16.2037 2.59361 14.562 4.00597L5.05606 11.6151C4.18942 12.282 3.67143 13.3009 3.64584 14.3891V27.0797C3.64584 29.8431 5.90243 32.0833 8.68609 32.0833H11.4804C12.4705 32.0833 13.2752 31.2903 13.2824 30.3074L13.3216 30.2944Z" fill="#010101"/>
</svg>
