<svg width="29" height="29" viewBox="0 0 29 29" fill="none" xmlns="http://www.w3.org/2000/svg">
<path d="M3.48736 28.8128L25.654 28.7579C26.4938 28.7558 27.2984 28.4201 27.8908 27.8248C28.4832 27.2295 28.8148 26.4232 28.8128 25.5833L28.7578 3.41674C28.7557 2.5769 28.4201 1.77227 27.8247 1.17988C27.2294 0.587491 26.4231 0.255861 25.5833 0.257944L3.41666 0.312936C1.65916 0.317296 0.253498 1.72995 0.257858 3.48745L0.31285 25.654C0.314934 26.4939 0.65056 27.2985 1.2459 27.8909C1.84123 28.4833 2.64751 28.8149 3.48736 28.8128ZM3.42451 3.47959L25.5911 3.4246L25.6461 25.5912L3.47951 25.6462L3.42451 3.47959ZM8.67919 21.8174L15.9286 14.5319L8.64313 7.28249L10.8859 5.04442L20.4095 14.5208L10.9331 24.0444L8.67919 21.8174Z" fill="white"/>
</svg>
