<svg width="25" height="28" viewBox="0 0 25 28" fill="none" xmlns="http://www.w3.org/2000/svg">
<path d="M22.6375 3.67818L25 1.27273V7.63636H18.75L21.35 4.98909C20.6875 4.11091 19.55 3.38545 17.95 2.78727C16.35 2.18909 14.5375 1.90909 12.5 1.90909C10.475 1.90909 8.65 2.18909 7.05 2.78727C5.45 3.38545 4.3125 4.11091 3.65 4.98909L6.25 7.63636H0V1.27273L2.3625 3.67818C3.3 2.54545 4.675 1.66727 6.5 0.992727C8.3125 0.318182 10.3125 0 12.5 0C14.6875 0 16.6875 0.318182 18.5 0.992727C20.325 1.66727 21.7 2.54545 22.6375 3.67818V3.67818ZM22.1625 19.4345V19.6636L21.25 26.3455C21.15 26.8291 20.95 27.2236 20.625 27.5418C20.2875 27.86 19.8875 28 19.4125 28H10.9125C10.45 28 10 27.8218 9.625 27.4273L3.4125 21.1655L4.4125 20.1473C4.6875 19.8673 5 19.7273 5.4125 19.7273H5.7L10 20.6818V7C10 6.50364 10.1625 6.05818 10.5375 5.67636C10.9125 5.29455 11.35 5.09091 11.875 5.09091C12.3625 5.09091 12.8 5.29455 13.175 5.67636C13.55 6.05818 13.75 6.50364 13.75 7V14.6364H14.725C14.85 14.6364 15.0625 14.7 15.375 14.7764L21.05 17.64C21.8 17.9964 22.1625 18.5945 22.1625 19.4345V19.4345Z" fill="#D8D9DB" fill-opacity="0.9"/>
</svg>
