<svg width="76" height="72" viewBox="0 0 76 72" fill="none" xmlns="http://www.w3.org/2000/svg">
<path d="M41.6019 0V18.288C40.4126 18.0819 39.2069 17.9855 38 18C36.7931 17.9855 35.5874 18.0819 34.3981 18.288V0H41.6019ZM55.6493 46.8C55.4834 47.4712 55.279 48.1323 55.037 48.78L66.8152 55.512V72H59.6114V59.688L51.4711 55.044C49.8007 56.9787 47.7328 58.5308 45.4082 59.5948C43.0835 60.6587 40.5568 61.2094 38 61.2094C35.4432 61.2094 32.9165 60.6587 30.5919 59.5948C28.2672 58.5308 26.1993 56.9787 24.5289 55.044L16.3886 59.688V72H9.18483V55.512L20.963 48.78C20.721 48.1323 20.5166 47.4712 20.3507 46.8H13.8673L3.96209 53.388L0 47.412L11.7062 39.6H20.3507C20.5767 38.5164 20.9023 37.4559 21.3232 36.432L15.7043 32.832L2.8455 36L1.11659 28.8L17.073 24.912L25.3934 30.42C28.7599 27.1219 33.286 25.2746 38 25.2746C42.714 25.2746 47.2401 27.1219 50.6066 30.42L58.7829 24.912L74.8834 28.8L73.1545 36L60.2957 32.796L54.6768 36.396C55.0998 37.4315 55.4254 38.5041 55.6493 39.6H64.2938L76 47.376L72.0379 53.352L62.1327 46.8H55.6493ZM34.3981 43.2C34.3981 42.488 34.1869 41.792 33.7911 41.1999C33.3953 40.6079 32.8328 40.1465 32.1746 39.874C31.5164 39.6016 30.7922 39.5303 30.0935 39.6692C29.3948 39.8081 28.753 40.1509 28.2493 40.6544C27.7456 41.1579 27.4025 41.7993 27.2635 42.4977C27.1245 43.196 27.1959 43.9198 27.4685 44.5777C27.7411 45.2355 28.2028 45.7977 28.7951 46.1933C29.3874 46.5889 30.0838 46.8 30.7962 46.8C31.7515 46.8 32.6676 46.4207 33.3431 45.7456C34.0186 45.0705 34.3981 44.1548 34.3981 43.2ZM48.8057 43.2C48.8057 42.488 48.5944 41.792 48.1987 41.1999C47.8029 40.6079 47.2403 40.1465 46.5822 39.874C45.924 39.6016 45.1998 39.5303 44.5011 39.6692C43.8024 39.8081 43.1606 40.1509 42.6569 40.6544C42.1531 41.1579 41.8101 41.7993 41.6711 42.4977C41.5321 43.196 41.6035 43.9198 41.8761 44.5777C42.1487 45.2355 42.6104 45.7977 43.2027 46.1933C43.795 46.5889 44.4914 46.8 45.2038 46.8C46.1591 46.8 47.0752 46.4207 47.7507 45.7456C48.4262 45.0705 48.8057 44.1548 48.8057 43.2Z" fill="white"/>
</svg>
